<?xml version="1.0" encoding="UTF-8"?><svg id="comp_3" xmlns="http://www.w3.org/2000/svg" viewBox="0 0 74.64 69.95"><defs><style>.cls-1{fill:#917e69;}.cls-2{fill:#3a3a30;}</style></defs><polygon class="cls-1" points="22.98 19.59 51.66 19.59 51.32 48.24 24.59 47.91 22.98 42.63 22.98 19.59"/><g><path class="cls-2" d="M54.57,33.94c-.02,1.84-.02,3.68-.06,5.52-.02,1.13-.06,2.25-.23,3.37-.44,2.85-1.75,5.17-4.24,6.72-1.11,.69-2.33,1.08-3.61,1.3-1.4,.24-2.81,.27-4.22,.28-3.28,.02-6.55,.01-9.83,0-.92,0-1.85-.05-2.77-.11-1.88-.13-3.68-.57-5.27-1.63-1.96-1.31-3.18-3.13-3.75-5.41-.25-.99-.36-2-.41-3.02-.17-3.8-.09-7.6-.08-11.41,0-1.12,.05-2.23,.13-3.34,.12-1.78,.52-3.49,1.48-5.02,1.17-1.88,2.83-3.15,4.95-3.81,.99-.31,2-.5,3.03-.54,1.75-.06,3.5-.12,5.25-.13,2.64-.01,5.27,0,7.91,.03,1.13,.01,2.25,.06,3.37,.23,2.85,.44,5.17,1.74,6.73,4.23,.69,1.11,1.08,2.34,1.31,3.63,.2,1.18,.24,2.38,.26,3.57,.04,1.85,.04,3.7,.06,5.55Zm-16.38,14.15c1.48-.03,3.83-.07,6.18-.13,.84-.02,1.67-.14,2.49-.37,1.52-.43,2.71-1.29,3.52-2.66,.61-1.03,.86-2.17,.94-3.35,.07-1.06,.13-2.12,.13-3.18,0-3.84,.09-7.67-.08-11.51-.04-.97-.16-1.92-.47-2.84-.53-1.58-1.54-2.74-3.05-3.44-.9-.42-1.87-.62-2.86-.69-1.05-.07-2.1-.13-3.14-.13-3.84,0-7.67-.09-11.51,.08-.86,.04-1.72,.14-2.55,.38-1.51,.43-2.69,1.28-3.49,2.63-.62,1.04-.87,2.19-.96,3.38-.07,1.06-.13,2.13-.13,3.19-.01,3.57-.07,7.14,.05,10.7,.03,.87,.07,1.75,.24,2.61,.18,.88,.46,1.72,.97,2.47,.93,1.37,2.25,2.14,3.85,2.48,1.11,.24,2.25,.27,3.38,.3,1.88,.04,3.76,.04,6.51,.07Z"/><path class="cls-2" d="M46.17,33.92c0,4.89-3.97,8.85-8.86,8.85-4.88,0-8.84-3.98-8.84-8.86,0-4.88,3.97-8.84,8.86-8.84,4.88,0,8.85,3.97,8.85,8.85Zm-3.09,.01c0-3.18-2.57-5.76-5.74-5.77-3.19,0-5.78,2.57-5.78,5.75,0,3.19,2.57,5.77,5.76,5.77,3.18,0,5.76-2.58,5.76-5.75Z"/><path class="cls-2" d="M48.56,24.74c0,1.14-.92,2.07-2.06,2.07-1.13,0-2.07-.93-2.07-2.06,0-1.14,.93-2.07,2.08-2.07,1.15,0,2.06,.92,2.06,2.07Z"/></g></svg>