<?xml version="1.0" encoding="UTF-8"?><svg id="comp_3" xmlns="http://www.w3.org/2000/svg" viewBox="0 0 74.64 69.95"><defs><style>.cls-1{fill:#917e69;}.cls-2{fill:#3a3a30;}</style></defs><ellipse class="cls-1" cx="37.6" cy="33.91" rx="17.51" ry="17.79"/><path class="cls-2" d="M36.79,16.14s-.23,.03-.48,.04c-2.55,.16-4.78,.76-7.02,1.89-1.66,.84-3.05,1.84-4.4,3.17-1.12,1.1-2.02,2.24-2.84,3.6-.29,.49-.9,1.7-1.13,2.25-.71,1.73-1.14,3.47-1.29,5.27-.02,.28-.06,.66-.07,.85-.04,.42-.04,1.05,0,1.38,.02,.14,.04,.46,.06,.7,.27,3.75,1.8,7.42,4.32,10.3,3.06,3.51,7.39,5.68,12,6.03,.22,.02,.55,.04,.73,.06,.41,.04,1.01,.04,1.34,0,.14-.02,.46-.04,.7-.06,.39-.03,.9-.08,1.18-.13,.71-.11,1.26-.23,1.91-.39,3.89-1,7.38-3.36,9.81-6.63,1.75-2.36,2.89-5.12,3.3-8.01,.04-.26,.09-.72,.11-1.01,.02-.29,.06-.67,.07-.84,.04-.39,.04-1.04,0-1.39-.01-.15-.04-.46-.06-.69-.18-2.51-.97-5.12-2.22-7.32-.86-1.51-1.82-2.77-3.07-3.99-1.36-1.33-2.79-2.35-4.48-3.2-2.07-1.04-4.3-1.66-6.55-1.82-.24-.02-.55-.04-.7-.06-.27-.03-1.2-.04-1.22-.01Zm1.99,2.26c1.74,1.84,3.09,3.67,4.14,5.61,.39,.72,.96,1.92,.96,2.02,0,.03-.07,.06-.23,.11-1.68,.51-3.31,.79-5.05,.9-.24,.01-.39,.01-.41,0-.03-.02-.04-.97-.04-4.58,0-2.5,0-4.56,.02-4.57,.06-.06,.16,.03,.61,.5Zm-2.31-.39s.02,2.06,.02,4.53c0,3.55,0,4.49-.03,4.51-.09,.07-1.7-.09-2.72-.26-1.01-.17-2.74-.59-2.79-.68,0-.01,.08-.24,.2-.51,.98-2.22,2.32-4.3,4.05-6.3,.41-.48,1.21-1.33,1.24-1.33,.01,0,.03,.02,.04,.04Zm-2.65,.26s-.09,.14-.2,.27c-1.73,2.05-3.24,4.48-4.19,6.77-.05,.12-.1,.22-.11,.23-.07,.05-1.92-.83-2.72-1.29-.52-.3-1.19-.71-1.31-.81l-.09-.07,.17-.19c.09-.11,.35-.37,.57-.59,2.02-2.04,4.58-3.51,7.35-4.23,.44-.11,.54-.13,.54-.08Zm7.66,.11c2.41,.66,4.55,1.8,6.42,3.43,.42,.36,1.05,.98,1.35,1.32l.21,.24-.09,.07c-.12,.1-.79,.52-1.31,.81-.75,.43-2.45,1.24-2.54,1.21-.02,0-.13-.24-.26-.52-.97-2.18-2.43-4.47-4.01-6.32-.21-.24-.28-.36-.21-.36,.01,0,.21,.05,.44,.11Zm-16.78,6.69c1.19,.76,2.41,1.4,3.63,1.9,.18,.08,.35,.15,.37,.17,.03,.03,0,.12-.09,.45-.5,1.66-.79,3.31-.9,5.01-.02,.3-.04,.44-.06,.45-.02,.01-1.45,.03-3.18,.03-2.75,0-3.15,0-3.17-.04-.05-.08,.05-1.07,.19-1.86,.26-1.5,.73-2.97,1.4-4.34,.43-.87,1.17-2.1,1.27-2.1,.02,0,.26,.15,.55,.33Zm26.04-.02c1.23,1.85,2.07,3.99,2.44,6.19,.13,.74,.22,1.72,.18,1.79-.02,.04-.41,.04-3.06,.04-2.4,0-3.05,0-3.07-.04-.02-.02-.04-.26-.06-.54-.11-1.66-.42-3.34-.94-5.01-.1-.33-.12-.41-.09-.43,.02-.02,.24-.12,.48-.22,1.16-.49,2.38-1.15,3.49-1.88,.19-.12,.36-.22,.38-.22,.02,0,.13,.14,.24,.31Zm-6.22,2.65c.1,.19,.47,1.58,.63,2.35,.21,1.06,.41,2.86,.34,2.99-.03,.04-7.25,.04-7.29,0-.05-.05-.05-4.23,0-4.27,.02-.02,.2-.04,.41-.05,1.72-.08,3.73-.43,5.42-.95,.47-.14,.46-.14,.5-.08Zm-13.72,.13c1.69,.49,3.57,.81,5.25,.9,.21,.01,.39,.03,.41,.05,.05,.04,.05,4.22,0,4.27-.04,.04-6.99,.05-7.05,0-.04-.02-.04-.09,0-.49,.1-1.44,.34-2.8,.73-4.16,.16-.55,.2-.69,.23-.69,0,0,.2,.06,.44,.12Zm-3.15,6.94s.04,.13,.06,.41c.12,1.92,.5,3.89,1.11,5.67,.07,.2,.08,.26,.05,.28-.02,.02-.19,.1-.38,.17-1.15,.46-2.42,1.11-3.62,1.86l-.47,.29-.07-.08s-.21-.29-.38-.55c-1.46-2.19-2.34-4.64-2.61-7.27-.05-.48-.06-.73-.03-.77,.03-.04,6.29-.05,6.35,0Zm8.81,0s.03,.59,.03,2.38c0,1.29-.01,2.36-.02,2.38-.01,.02-.21,.04-.52,.06-1.75,.11-3.26,.36-4.94,.83-.32,.09-.48,.12-.49,.1-.04-.04-.21-.57-.36-1.06-.4-1.38-.65-2.78-.75-4.22-.03-.38-.03-.46,0-.48,.06-.04,7.01-.03,7.05,0Zm9.03,0s.03,.06-.02,.73c-.11,1.51-.43,3.1-.93,4.63-.08,.26-.16,.47-.18,.48s-.17-.03-.35-.08c-1.64-.5-3.46-.82-5.31-.93-.31-.02-.51-.04-.52-.06-.01-.02-.02-1.09-.02-2.38,0-1.79,0-2.36,.03-2.38,.05-.05,7.25-.05,7.3,0Zm7.86,.31c0,.18-.03,.5-.05,.71-.3,2.5-1.16,4.87-2.53,6.94-.38,.57-.49,.71-.53,.7-.03-.01-.21-.12-.41-.25-1.07-.68-2.39-1.36-3.66-1.89-.11-.04-.19-.09-.19-.1s.04-.15,.1-.31c.61-1.81,1.02-3.91,1.11-5.7,0-.21,.03-.39,.05-.41,.02-.03,.66-.03,3.07-.03h3.05s0,.33,0,.33Zm-16.87,6.24c.03,.08,.02,8.46-.01,8.48-.04,.02-.23-.16-.76-.74-1.81-1.98-3.3-4.17-4.32-6.36-.16-.33-.22-.5-.2-.53,.03-.04,.11-.07,.7-.22,.61-.16,1.24-.29,1.82-.39,.74-.13,1.24-.18,2.22-.26,.34-.03,.54-.02,.55,.03Zm2.89,.03c1.09,.11,2.12,.28,3.19,.54,.65,.16,1.14,.31,1.16,.35,.01,.04-.48,1.06-.79,1.64-.76,1.4-1.78,2.89-2.87,4.18-.47,.56-1.1,1.25-1.46,1.61-.29,.28-.33,.31-.38,.28l-.06-.03v-4.28c0-2.35,0-4.3,.02-4.33,.02-.04,.05-.04,.39-.03,.21,.01,.56,.04,.79,.06Zm-9.68,1.7c.08,.18,.29,.61,.46,.95,.94,1.88,2.06,3.55,3.63,5.43,.06,.07,.1,.14,.09,.16-.02,.03-.23-.01-.84-.18-2.47-.67-4.82-2-6.71-3.78-.42-.4-.8-.8-.8-.84,0-.12,1.89-1.17,2.9-1.63,.46-.21,1.03-.43,1.07-.44,.03,0,.09,.11,.19,.33Zm16.2-.04c.86,.37,1.88,.89,2.69,1.38,.43,.26,.57,.36,.57,.39,0,.08-.93,.98-1.49,1.45-1.3,1.09-2.74,1.95-4.32,2.6-.77,.31-2.19,.74-2.25,.69-.02-.02,.04-.1,.13-.21,1.61-1.88,2.99-4.04,4.02-6.29,.06-.13,.12-.21,.14-.21,.02,0,.25,.09,.51,.2Z"/></svg>